<?xml version="1.0" encoding="utf-8"?>
<!-- Generator: Adobe Illustrator 17.1.0, SVG Export Plug-In . SVG Version: 6.00 Build 0)  -->
<!DOCTYPE svg PUBLIC "-//W3C//DTD SVG 1.1//EN" "http://www.w3.org/Graphics/SVG/1.1/DTD/svg11.dtd">
<svg version="1.1"
	 id="Layer_1" xmlns:rdf="http://www.w3.org/1999/02/22-rdf-syntax-ns#" xmlns:dc="http://purl.org/dc/elements/1.1/" xmlns:cc="http://creativecommons.org/ns#"
	 xmlns="http://www.w3.org/2000/svg" xmlns:xlink="http://www.w3.org/1999/xlink" x="0px" y="0px" viewBox="0 613.8 2500 586.2"
	 enable-background="new 0 613.8 2500 586.2" xml:space="preserve">
<path fill="#69B8D6" d="M539.7,1116.8c0,34.4-27.8,62.2-62.2,62.2H85c-34.3,0-62.2-27.8-62.2-62.2V695.7c0-34.3,27.9-62.2,62.2-62.2
	h392.5c34.4,0,62.2,27.8,62.2,62.2V1116.8L539.7,1116.8z"/>
<path fill="#231F20" d="M769.9,648.7v240.2H824v-139l62,139h56.3l60.7-139.6V889h52.8V648.7h-61.3l-79.8,179.6l-81.3-179.6
	C833.3,648.7,769.9,648.7,769.9,648.7z M1185.5,648.7l-106.2,240.2h62l20.7-47.8h124.8l21.4,47.8h61.3l-107.6-240.2
	C1261.7,648.7,1185.5,648.7,1185.5,648.7z M1394.3,648.7v240.2h229.5v-47.8h-174.7v-49.8h149.7V745h-149.7v-47.8H1623v-48.5
	L1394.3,648.7L1394.3,648.7z M1668.8,648.7v240.2h56.3v-82h63.4l52.8,82h62l-56.3-83.4c1.9,0,3.9,0.1,5.7,0
	c31.9,0,48.5-17.1,48.5-35.6v-80.6c0-25.5-15-40.6-40.6-40.6H1668.8L1668.8,648.7z M1985.3,648.7c-20.7,0-37.8,15.5-37.8,37.1v71.3
	c0,20.3,15.3,34.9,37.1,34.9h136.2v49.2h-118.3v-18.5h-56.3v31.4c0,20.9,12.2,35.6,37.1,35.6h19.2h136.9c24.3,0,37.1-14.5,37.1-37.8
	v-68.4c0-25.5-18.5-39.2-38.5-39.2h-135.4v-47h118.3v19.2h55.6v-29.2c0-22.7-14.7-38.5-35.6-38.5
	C2140.7,648.7,1985.3,648.7,1985.3,648.7z M2229.8,648.7v240.9h57V779.9l110.5,109.8h79.8l-134-129l129-111.9h-77L2286.7,745v-96.2
	C2286.8,648.7,2229.8,648.7,2229.8,648.7z M1224,694.4l43.5,101.9h-87L1224,694.4z M1725.1,697.2h120.5v62h-120.5V697.2z
	 M779.1,970.2c-1.1,0-2.1,1-2.1,2.1v188.2c0,1.1,1.1,2.1,2.1,2.1h144c1.1,0,1.4-1,1.4-2.1v-20.7c0-1.1-0.3-1.4-1.4-1.4H806.9
	c-1.1,0-2.1-1.1-2.1-2.1v-164c0-1.1-1-2.1-2.1-2.1H779.1L779.1,970.2z M962.3,970.2c-1.1,0-1.4,1-1.4,2.1v188.2
	c0,1.1,0.3,2.1,1.4,2.1h24.2c1.1,0,1.4-1.1,1.4-2.1V972.4c0-1.1-0.3-2.1-1.4-2.1L962.3,970.2L962.3,970.2z M1045,970.2
	c-1.1,0-2.1,1-2.1,2.1v188.2c0,1.1,1.1,2.1,2.1,2.1h23.5c1.1,0,1.4-1.1,1.4-2.1v-156.8l124,156.1c1.3,1.6,3.5,2.9,5.7,2.9h26.4
	c1.1,0,1.4-1.1,1.4-2.1V972.4c0-1.1-0.3-2.1-1.4-2.1h-23.5c-1.1,0-1.4,1-1.4,2.1v154l-123.3-154.7c-0.5-0.8-1.1-1.4-2.1-1.4
	L1045,970.2L1045,970.2z M1284.6,970.2c-1.1,0-2.1,1-2.1,2.1v188.2c0,1.1,1,2.1,2.1,2.1h159.7c1.1,0,2.1-1.1,2.1-2.1v-20.7
	c0-1.1-1-1.4-2.1-1.4h-131.9c-1.1,0-2.1-1.1-2.1-2.1v-55.6c0-1.1,1.1-1.4,2.1-1.4h109.8c1.1,0,1.4-1,1.4-2.1v-20
	c0-1.1-0.4-2.1-1.4-2.1h-109.8c-1.1,0-2.1-0.3-2.1-1.4v-57c0-1.1,1.1-2.1,2.1-2.1h130.5c1.1,0,2.1-0.3,2.1-1.4v-20.7
	c0-1.1-1.1-2.1-2.1-2.1L1284.6,970.2L1284.6,970.2z"/>
<path fill="#FFFFFF" d="M363.7,892.1l102-127.9l-0.3-0.4L318,834.7l-36.5-159.4H281l-36.4,159.5l-147.4-71l-0.3,0.4l102,127.9
	l-147.4,71l0.2,0.5h163.6l-36.4,159.5l0.5,0.2l102-127.9l102,127.9l0.5-0.2l-36.4-159.5H511l0.1-0.5L363.7,892.1L363.7,892.1z"/>
</svg>
